<?xml version="1.0" encoding="UTF-8"?>
<svg width="173px" height="62px" viewBox="0 0 173 62" version="1.1" xmlns="http://www.w3.org/2000/svg" xmlns:xlink="http://www.w3.org/1999/xlink">
    <!-- Generator: Sketch 53.2 (72643) - https://sketchapp.com -->
    <title>Logo Tesla</title>
    <desc>Created with Sketch.</desc>
    <defs>
        <polygon id="path-1" points="0 62 172.703 62 172.703 0.027 0 0.027"></polygon>
    </defs>
    <g id="Symbols" stroke="none" stroke-width="1" fill="none" fill-rule="evenodd">
        <g id="Logo-Tesla" transform="translate(0.000000, -1.000000)">
            <g>
                <polygon id="Fill-1" fill="#FE000B" points="0 8.9997 29 8.9997 29 0.9997 0 0.9997"></polygon>
                <polygon id="Fill-2" fill="#342C9C" points="0 18.9997 29 18.9997 29 11.0007 0 11.0007"></polygon>
                <polygon id="Fill-3" fill="#342C9C" points="20 38.9997 49 38.9997 49 30.9997 20 30.9997"></polygon>
                <polygon id="Fill-4" fill="#FE000B" points="20 48.9997 49 48.9997 49 40.9997 20 40.9997"></polygon>
                <polygon id="Fill-5" fill="#342C9C" points="31 29.0007 39 29.0007 39 0.9997 31 0.9997"></polygon>
                <polygon id="Fill-6" fill="#FE000B" points="41 29.0007 48.999 29.0007 48.999 0.9997 41 0.9997"></polygon>
                <polygon id="Fill-7" fill="#FE000B" points="0 48.9997 8 48.9997 8 20.9997 0 20.9997"></polygon>
                <polygon id="Fill-8" fill="#342C9C" points="10 48.9997 18 48.9997 18 20.9997 10 20.9997"></polygon>
                <polygon id="Fill-9" fill="#342C9C" points="65.9194 48.8453 65.9194 21.0663 54.9774 21.0663 54.9774 17.3493 81.3014 17.3493 81.3014 21.0663 70.3144 21.0663 70.3144 48.8453"></polygon>
                <g id="Group-43" transform="translate(0.000000, 0.972700)">
                    <path d="M82.624,34.2729 L96.058,34.2729 C95.877,32.3539 95.363,30.9149 94.518,29.9549 C93.219,28.4649 91.535,27.7199 89.466,27.7199 C87.593,27.7199 86.019,28.3149 84.742,29.5029 C83.466,30.6919 82.76,32.2819 82.624,34.2729 M96.013,40.5249 L100.227,41.0189 C99.562,43.3539 98.331,45.1659 96.534,46.4549 C94.736,47.7439 92.441,48.3879 89.647,48.3879 C86.128,48.3879 83.338,47.3609 81.276,45.3049 C79.215,43.2499 78.184,40.3679 78.184,36.6579 C78.184,32.8189 79.226,29.8399 81.31,27.7199 C83.395,25.6009 86.098,24.5409 89.42,24.5409 C92.637,24.5409 95.265,25.5789 97.304,27.6559 C99.343,29.7329 100.362,32.6549 100.362,36.4209 C100.362,36.6509 100.355,36.9949 100.34,37.4529 L82.397,37.4529 C82.548,39.9599 83.296,41.8779 84.641,43.2109 C85.984,44.5429 87.661,45.2089 89.67,45.2089 C91.165,45.2089 92.441,44.8359 93.498,44.0909 C94.555,43.3469 95.394,42.1579 96.013,40.5249" id="Fill-10" fill="#342C9C"></path>
                    <path d="M103.1123,41.062 L107.1443,40.46 C107.3713,41.993 108.0023,43.167 109.0363,43.984 C110.0703,44.8 111.5173,45.208 113.3743,45.208 C115.2473,45.208 116.6363,44.847 117.5433,44.124 C118.4493,43.4 118.9023,42.552 118.9023,41.578 C118.9023,40.704 118.5023,40.017 117.7013,39.515 C117.1423,39.171 115.7533,38.735 113.5333,38.205 C110.5433,37.489 108.4703,36.869 107.3143,36.346 C106.1593,35.824 105.2833,35.1 104.6863,34.176 C104.0903,33.252 103.7923,32.232 103.7923,31.115 C103.7923,30.098 104.0373,29.156 104.5283,28.29 C105.0183,27.423 105.6873,26.704 106.5333,26.13 C107.1673,25.687 108.0313,25.311 109.1273,25.002 C110.2213,24.695 111.3963,24.541 112.6503,24.541 C114.5373,24.541 116.1953,24.798 117.6223,25.314 C119.0503,25.83 120.1033,26.528 120.7823,27.409 C121.4623,28.29 121.9303,29.468 122.1873,30.943 L118.2003,31.458 C118.0193,30.284 117.4933,29.368 116.6253,28.708 C115.7573,28.05 114.5303,27.72 112.9443,27.72 C111.0713,27.72 109.7353,28.014 108.9343,28.601 C108.1333,29.188 107.7343,29.876 107.7343,30.664 C107.7343,31.165 107.9003,31.616 108.2323,32.017 C108.5643,32.433 109.0853,32.776 109.7953,33.048 C110.2033,33.192 111.4043,33.521 113.3973,34.037 C116.2813,34.767 118.2943,35.365 119.4343,35.831 C120.5743,36.296 121.4693,36.973 122.1193,37.861 C122.7683,38.749 123.0933,39.852 123.0933,41.169 C123.0933,42.458 122.6963,43.672 121.9043,44.811 C121.1113,45.95 119.9673,46.831 118.4713,47.454 C116.9763,48.077 115.2853,48.388 113.3973,48.388 C110.2713,48.388 107.8883,47.772 106.2503,46.541 C104.6113,45.309 103.5653,43.483 103.1123,41.062" id="Fill-12" fill="#342C9C"></path>
                    <mask id="mask-2" fill="white">
                        <use xlink:href="#path-1"></use>
                    </mask>
                    <g id="Clip-15"></g>
                    <polygon id="Fill-14" fill="#342C9C" mask="url(#mask-2)" points="127.248 47.872 131.326 47.872 131.326 16.376 127.248 16.376"></polygon>
                    <path d="M152.4023,36.4214 C150.9223,36.9944 148.7013,37.4814 145.7423,37.8824 C144.0653,38.1114 142.8803,38.3694 142.1853,38.6554 C141.4903,38.9424 140.9543,39.3614 140.5763,39.9124 C140.1993,40.4644 140.0103,41.0764 140.0103,41.7494 C140.0103,42.7804 140.4223,43.6404 141.2453,44.3274 C142.0683,45.0154 143.2723,45.3594 144.8583,45.3594 C146.4293,45.3594 147.8263,45.0334 149.0493,44.3814 C150.2733,43.7304 151.1713,42.8384 151.7453,41.7064 C152.1833,40.8334 152.4023,39.5444 152.4023,37.8394 L152.4023,36.4214 Z M152.7423,45.0584 C151.2323,46.2754 149.7773,47.1354 148.3813,47.6364 C146.9843,48.1374 145.4853,48.3884 143.8843,48.3884 C141.2413,48.3884 139.2103,47.7754 137.7903,46.5514 C136.3703,45.3264 135.6603,43.7624 135.6603,41.8574 C135.6603,40.7394 135.9283,39.7194 136.4643,38.7954 C137.0013,37.8714 137.7033,37.1304 138.5713,36.5714 C139.4403,36.0134 140.4183,35.5904 141.5053,35.3044 C142.3063,35.1044 143.5143,34.9104 145.1303,34.7244 C148.4233,34.3524 150.8463,33.9074 152.4023,33.3924 C152.4173,32.8624 152.4243,32.5254 152.4243,32.3824 C152.4243,30.8074 152.0403,29.6964 151.2693,29.0524 C150.2273,28.1784 148.6793,27.7414 146.6253,27.7414 C144.7073,27.7414 143.2913,28.0604 142.3783,28.6974 C141.4643,29.3354 140.7883,30.4634 140.3503,32.0814 L136.3633,31.5664 C136.7253,29.9474 137.3213,28.6404 138.1523,27.6454 C138.9833,26.6504 140.1843,25.8834 141.7553,25.3464 C143.3253,24.8094 145.1453,24.5404 147.2143,24.5404 C149.2683,24.5404 150.9373,24.7704 152.2213,25.2284 C153.5043,25.6864 154.4483,26.2634 155.0523,26.9574 C155.6563,27.6524 156.0793,28.5294 156.3213,29.5894 C156.4573,30.2484 156.5253,31.4374 156.5253,33.1554 L156.5253,38.3124 C156.5253,41.9074 156.6123,44.1814 156.7863,45.1334 C156.9593,46.0864 157.3033,46.9994 157.8173,47.8724 L153.5573,47.8724 C153.1343,47.0704 152.8623,46.1324 152.7423,45.0584 L152.7423,45.0584 Z" id="Fill-16" fill="#342C9C" mask="url(#mask-2)"></path>
                    <polygon id="Fill-17" fill="#342C9C" mask="url(#mask-2)" points="0.574 61.873 2.019 61.873 2.019 54.715 0.574 54.715"></polygon>
                    <polygon id="Fill-18" fill="#342C9C" mask="url(#mask-2)" points="3.2812 61.873 3.2812 54.715 4.6872 54.715 7.6172 59.494 7.6172 54.715 8.9602 54.715 8.9602 61.873 7.5102 61.873 4.6242 57.205 4.6242 61.873"></polygon>
                    <path d="M13.6885,59.2402 L13.6885,58.0352 L16.8035,58.0352 L16.8035,60.8862 C16.5015,61.1792 16.0625,61.4372 15.4875,61.6602 C14.9135,61.8832 14.3315,61.9942 13.7425,61.9942 C12.9935,61.9942 12.3405,61.8382 11.7845,61.5232 C11.2275,61.2092 10.8095,60.7602 10.5295,60.1762 C10.2495,59.5922 10.1095,58.9562 10.1095,58.2692 C10.1095,57.5232 10.2655,56.8612 10.5785,56.2812 C10.8905,55.7022 11.3485,55.2582 11.9505,54.9492 C12.4095,54.7112 12.9805,54.5922 13.6645,54.5922 C14.5525,54.5922 15.2475,54.7792 15.7465,55.1512 C16.2465,55.5232 16.5675,56.0392 16.7105,56.6972 L15.2755,56.9652 C15.1745,56.6132 14.9845,56.3362 14.7065,56.1332 C14.4285,55.9292 14.0805,55.8282 13.6645,55.8282 C13.0325,55.8282 12.5305,56.0272 12.1575,56.4272 C11.7855,56.8282 11.5985,57.4232 11.5985,58.2112 C11.5985,59.0602 11.7875,59.6972 12.1655,60.1222 C12.5425,60.5472 13.0375,60.7602 13.6495,60.7602 C13.9525,60.7602 14.2555,60.6992 14.5605,60.5812 C14.8645,60.4632 15.1255,60.3182 15.3435,60.1482 L15.3435,59.2402 L13.6885,59.2402 Z" id="Fill-19" fill="#342C9C" mask="url(#mask-2)"></path>
                    <polygon id="Fill-20" fill="#342C9C" mask="url(#mask-2)" points="18.0063 61.873 18.0063 54.715 23.3143 54.715 23.3143 55.926 19.4513 55.926 19.4513 57.512 23.0453 57.512 23.0453 58.719 19.4513 58.719 19.4513 60.666 23.4503 60.666 23.4503 61.873"></polygon>
                    <polygon id="Fill-21" fill="#342C9C" mask="url(#mask-2)" points="24.561 61.873 24.561 54.715 25.967 54.715 28.897 59.494 28.897 54.715 30.24 54.715 30.24 61.873 28.79 61.873 25.904 57.205 25.904 61.873"></polygon>
                    <polygon id="Fill-22" fill="#342C9C" mask="url(#mask-2)" points="31.594 61.873 33.039 61.873 33.039 54.715 31.594 54.715"></polygon>
                    <polygon id="Fill-23" fill="#342C9C" mask="url(#mask-2)" points="34.2866 61.873 34.2866 54.715 39.5946 54.715 39.5946 55.926 35.7316 55.926 35.7316 57.512 39.3256 57.512 39.3256 58.719 35.7316 58.719 35.7316 60.666 39.7306 60.666 39.7306 61.873"></polygon>
                    <path d="M42.2764,57.7422 L43.3454,57.7422 C44.0394,57.7422 44.4724,57.7132 44.6444,57.6542 C44.8174,57.5962 44.9524,57.4942 45.0494,57.3512 C45.1474,57.2082 45.1964,57.0292 45.1964,56.8142 C45.1964,56.5732 45.1314,56.3792 45.0034,56.2302 C44.8754,56.0822 44.6934,55.9882 44.4594,55.9492 C44.3414,55.9332 43.9904,55.9262 43.4044,55.9262 L42.2764,55.9262 L42.2764,57.7422 Z M40.8314,61.8732 L40.8314,54.7152 L43.8734,54.7152 C44.6384,54.7152 45.1934,54.7792 45.5404,54.9072 C45.8874,55.0352 46.1644,55.2642 46.3734,55.5942 C46.5814,55.9222 46.6854,56.2982 46.6854,56.7212 C46.6854,57.2582 46.5274,57.7012 46.2124,58.0522 C45.8964,58.4022 45.4244,58.6222 44.7964,58.7132 C45.1084,58.8952 45.3664,59.0962 45.5694,59.3142 C45.7734,59.5322 46.0474,59.9202 46.3924,60.4762 L47.2664,61.8732 L45.5384,61.8732 L44.4934,60.3142 C44.1224,59.7582 43.8684,59.4082 43.7314,59.2632 C43.5944,59.1172 43.4494,59.0182 43.2974,58.9652 C43.1444,58.9112 42.9014,58.8852 42.5694,58.8852 L42.2764,58.8852 L42.2764,61.8732 L40.8314,61.8732 Z" id="Fill-24" fill="#342C9C" mask="url(#mask-2)"></path>
                    <path d="M47.874,61.873 L49.319,61.873 L49.319,54.715 L47.874,54.715 L47.874,61.873 Z M47.708,54.305 L48.382,52.844 L49.92,52.844 L48.577,54.305 L47.708,54.305 Z" id="Fill-25" fill="#342C9C" mask="url(#mask-2)"></path>
                    <path d="M54.3604,59.041 L53.3744,56.385 L52.4074,59.041 L54.3604,59.041 Z M57.0214,61.873 L55.4494,61.873 L54.8244,60.246 L51.9634,60.246 L51.3724,61.873 L49.8394,61.873 L52.6274,54.715 L54.1554,54.715 L57.0214,61.873 Z" id="Fill-26" fill="#342C9C" mask="url(#mask-2)"></path>
                    <polygon id="Fill-27" fill="#342C9C" mask="url(#mask-2)" points="61.6343 61.873 61.6343 58.859 59.0123 54.715 60.7063 54.715 62.3913 57.547 64.0413 54.715 65.7063 54.715 63.0743 58.869 63.0743 61.873"></polygon>
                    <path d="M70.2075,55.9258 L70.2075,57.9568 L70.9985,57.9568 C71.5685,57.9568 71.9495,57.9188 72.1415,57.8438 C72.3325,57.7698 72.4835,57.6528 72.5925,57.4918 C72.7015,57.3328 72.7565,57.1478 72.7565,56.9358 C72.7565,56.6758 72.6795,56.4608 72.5265,56.2908 C72.3745,56.1218 72.1805,56.0168 71.9455,55.9748 C71.7735,55.9418 71.4265,55.9258 70.9055,55.9258 L70.2075,55.9258 Z M68.7625,61.8728 L68.7625,54.7148 L71.0815,54.7148 C71.9605,54.7148 72.5335,54.7498 72.8005,54.8218 C73.2105,54.9298 73.5535,55.1618 73.8305,55.5228 C74.1075,55.8828 74.2455,56.3468 74.2455,56.9158 C74.2455,57.3558 74.1655,57.7258 74.0065,58.0258 C73.8465,58.3238 73.6445,58.5598 73.3985,58.7308 C73.1525,58.9018 72.9025,59.0148 72.6485,59.0708 C72.3035,59.1388 71.8045,59.1718 71.1495,59.1718 L70.2075,59.1718 L70.2075,61.8728 L68.7625,61.8728 Z" id="Fill-28" fill="#342C9C" mask="url(#mask-2)"></path>
                    <path d="M76.7525,57.7422 L77.8215,57.7422 C78.5155,57.7422 78.9485,57.7132 79.1205,57.6542 C79.2935,57.5962 79.4285,57.4942 79.5255,57.3512 C79.6235,57.2082 79.6725,57.0292 79.6725,56.8142 C79.6725,56.5732 79.6075,56.3792 79.4795,56.2302 C79.3515,56.0822 79.1695,55.9882 78.9355,55.9492 C78.8175,55.9332 78.4665,55.9262 77.8805,55.9262 L76.7525,55.9262 L76.7525,57.7422 Z M75.3075,61.8732 L75.3075,54.7152 L78.3495,54.7152 C79.1145,54.7152 79.6695,54.7792 80.0165,54.9072 C80.3635,55.0352 80.6405,55.2642 80.8495,55.5942 C81.0575,55.9222 81.1615,56.2982 81.1615,56.7212 C81.1615,57.2582 81.0035,57.7012 80.6885,58.0522 C80.3725,58.4022 79.9005,58.6222 79.2725,58.7132 C79.5845,58.8952 79.8425,59.0962 80.0455,59.3142 C80.2495,59.5322 80.5235,59.9202 80.8685,60.4762 L81.7425,61.8732 L80.0145,61.8732 L78.9695,60.3142 C78.5985,59.7582 78.3445,59.4082 78.2075,59.2632 C78.0705,59.1172 77.9255,59.0182 77.7735,58.9652 C77.6205,58.9112 77.3775,58.8852 77.0455,58.8852 L76.7525,58.8852 L76.7525,61.8732 L75.3075,61.8732 Z" id="Fill-29" fill="#342C9C" mask="url(#mask-2)"></path>
                    <path d="M83.5899,58.2891 C83.5899,59.1001 83.7769,59.7131 84.1519,60.1321 C84.5259,60.5511 85.0009,60.7601 85.5769,60.7601 C86.1529,60.7601 86.6259,60.5521 86.9959,60.1371 C87.3649,59.7221 87.5499,59.1001 87.5499,58.2691 C87.5499,57.4491 87.3699,56.8371 87.0099,56.4341 C86.6509,56.0291 86.1729,55.8281 85.5769,55.8281 C84.9819,55.8281 84.5019,56.0311 84.1369,56.4401 C83.7719,56.8501 83.5899,57.4651 83.5899,58.2891 M82.1009,58.3381 C82.1009,57.6081 82.2099,56.9961 82.4279,56.5021 C82.5899,56.1371 82.8129,55.8101 83.0939,55.5191 C83.3759,55.2301 83.6839,55.0161 84.0199,54.8751 C84.4649,54.6861 84.9799,54.5921 85.5629,54.5921 C86.6169,54.5921 87.4609,54.9201 88.0939,55.5741 C88.7279,56.2281 89.0439,57.1381 89.0439,58.3031 C89.0439,59.4591 88.7299,60.3631 88.1019,61.0161 C87.4729,61.6681 86.6329,61.9941 85.5819,61.9941 C84.5179,61.9941 83.6719,61.6701 83.0429,61.0201 C82.4149,60.3711 82.1009,59.4761 82.1009,58.3381" id="Fill-30" fill="#342C9C" mask="url(#mask-2)"></path>
                    <polygon id="Fill-31" fill="#342C9C" mask="url(#mask-2)" points="91.9219 61.873 91.9219 58.859 89.2999 54.715 90.9939 54.715 92.6789 57.547 94.3289 54.715 95.9939 54.715 93.3619 58.869 93.3619 61.873"></polygon>
                    <polygon id="Fill-32" fill="#342C9C" mask="url(#mask-2)" points="96.582 61.873 96.582 54.715 101.89 54.715 101.89 55.926 98.027 55.926 98.027 57.512 101.621 57.512 101.621 58.719 98.027 58.719 98.027 60.666 102.026 60.666 102.026 61.873"></polygon>
                    <path d="M107.7022,59.2402 L109.1032,59.6852 C108.8892,60.4672 108.5312,61.0472 108.0322,61.4262 C107.5322,61.8042 106.8982,61.9942 106.1302,61.9942 C105.1792,61.9942 104.3982,61.6702 103.7862,61.0202 C103.1742,60.3712 102.8682,59.4832 102.8682,58.3572 C102.8682,57.1662 103.1762,56.2402 103.7912,55.5812 C104.4062,54.9222 105.2152,54.5922 106.2182,54.5922 C107.0932,54.5922 107.8052,54.8512 108.3512,55.3692 C108.6772,55.6752 108.9212,56.1142 109.0842,56.6872 L107.6532,57.0292 C107.5692,56.6582 107.3922,56.3652 107.1232,56.1502 C106.8552,55.9352 106.5292,55.8282 106.1442,55.8282 C105.6142,55.8282 105.1832,56.0172 104.8532,56.3982 C104.5222,56.7792 104.3572,57.3962 104.3572,58.2502 C104.3572,59.1542 104.5202,59.7992 104.8462,60.1832 C105.1712,60.5672 105.5942,60.7602 106.1152,60.7602 C106.4992,60.7602 106.8292,60.6362 107.1062,60.3922 C107.3832,60.1482 107.5812,59.7642 107.7022,59.2402" id="Fill-33" fill="#342C9C" mask="url(#mask-2)"></path>
                    <polygon id="Fill-34" fill="#342C9C" mask="url(#mask-2)" points="111.8247 61.873 111.8247 55.926 109.7007 55.926 109.7007 54.715 115.3887 54.715 115.3887 55.926 113.2697 55.926 113.2697 61.873"></polygon>
                    <path d="M117.2075,58.2891 C117.2075,59.1001 117.3945,59.7131 117.7695,60.1321 C118.1435,60.5511 118.6185,60.7601 119.1945,60.7601 C119.7705,60.7601 120.2435,60.5521 120.6135,60.1371 C120.9825,59.7221 121.1675,59.1001 121.1675,58.2691 C121.1675,57.4491 120.9875,56.8371 120.6275,56.4341 C120.2685,56.0291 119.7905,55.8281 119.1945,55.8281 C118.5995,55.8281 118.1195,56.0311 117.7545,56.4401 C117.3895,56.8501 117.2075,57.4651 117.2075,58.2891 M115.7185,58.3381 C115.7185,57.6081 115.8275,56.9961 116.0455,56.5021 C116.2075,56.1371 116.4305,55.8101 116.7115,55.5191 C116.9935,55.2301 117.3015,55.0161 117.6375,54.8751 C118.0825,54.6861 118.5975,54.5921 119.1805,54.5921 C120.2345,54.5921 121.0785,54.9201 121.7115,55.5741 C122.3455,56.2281 122.6615,57.1381 122.6615,58.3031 C122.6615,59.4591 122.3475,60.3631 121.7195,61.0161 C121.0905,61.6681 120.2505,61.9941 119.1995,61.9941 C118.1355,61.9941 117.2895,61.6701 116.6605,61.0201 C116.0325,60.3711 115.7185,59.4761 115.7185,58.3381" id="Fill-35" fill="#342C9C" mask="url(#mask-2)"></path>
                    <path d="M123.2935,59.543 L124.6995,59.406 C124.7845,59.879 124.9565,60.226 125.2145,60.447 C125.4735,60.668 125.8225,60.779 126.2625,60.779 C126.7275,60.779 127.0785,60.68 127.3145,60.483 C127.5505,60.287 127.6685,60.057 127.6685,59.793 C127.6685,59.623 127.6185,59.479 127.5195,59.36 C127.4205,59.242 127.2475,59.139 126.9995,59.051 C126.8305,58.992 126.4445,58.888 125.8425,58.738 C125.0675,58.546 124.5235,58.31 124.2115,58.029 C123.7725,57.636 123.5525,57.156 123.5525,56.59 C123.5525,56.225 123.6555,55.884 123.8625,55.566 C124.0685,55.249 124.3665,55.008 124.7555,54.842 C125.1455,54.676 125.6145,54.592 126.1645,54.592 C127.0635,54.592 127.7395,54.789 128.1935,55.184 C128.6475,55.577 128.8855,56.103 128.9085,56.76 L127.4635,56.824 C127.4015,56.456 127.2695,56.191 127.0655,56.03 C126.8615,55.869 126.5565,55.789 126.1495,55.789 C125.7305,55.789 125.4015,55.875 125.1635,56.047 C125.0105,56.158 124.9345,56.307 124.9345,56.492 C124.9345,56.661 125.0055,56.806 125.1485,56.926 C125.3315,57.079 125.7735,57.238 126.4775,57.404 C127.1805,57.57 127.7005,57.742 128.0375,57.92 C128.3745,58.098 128.6375,58.34 128.8285,58.647 C129.0185,58.955 129.1135,59.335 129.1135,59.787 C129.1135,60.197 129.0005,60.582 128.7725,60.939 C128.5435,61.298 128.2215,61.564 127.8055,61.738 C127.3885,61.912 126.8695,62 126.2475,62 C125.3425,62 124.6475,61.791 124.1625,61.372 C123.6775,60.953 123.3875,60.344 123.2935,59.543" id="Fill-36" fill="#342C9C" mask="url(#mask-2)"></path>
                    <polygon id="Fill-37" fill="#342C9C" mask="url(#mask-2)" points="132.8867 61.873 132.8867 54.773 134.3317 54.773 134.3317 60.666 137.9257 60.666 137.9257 61.873"></polygon>
                    <polygon id="Fill-38" fill="#342C9C" mask="url(#mask-2)" points="139.6953 61.873 139.6953 55.926 137.5713 55.926 137.5713 54.715 143.2593 54.715 143.2593 55.926 141.1403 55.926 141.1403 61.873"></polygon>
                    <path d="M145.5029,55.9258 L145.5029,60.6658 L146.5819,60.6658 C146.9859,60.6658 147.2769,60.6438 147.4559,60.5978 C147.6909,60.5388 147.8849,60.4408 148.0399,60.3008 C148.1939,60.1598 148.3199,59.9298 148.4179,59.6098 C148.5159,59.2888 148.5649,58.8518 148.5649,58.2988 C148.5649,57.7448 148.5159,57.3208 148.4179,57.0238 C148.3199,56.7278 148.1839,56.4958 148.0079,56.3298 C147.8319,56.1638 147.6089,56.0528 147.3389,55.9938 C147.1369,55.9478 146.7419,55.9258 146.1519,55.9258 L145.5029,55.9258 Z M144.0579,54.7148 L146.6989,54.7148 C147.2949,54.7148 147.7489,54.7598 148.0619,54.8518 C148.4819,54.9748 148.8409,55.1948 149.1409,55.5098 C149.4399,55.8258 149.6679,56.2128 149.8239,56.6698 C149.9809,57.1268 150.0589,57.6918 150.0589,58.3618 C150.0589,58.9508 149.9849,59.4588 149.8389,59.8848 C149.6599,60.4058 149.4039,60.8278 149.0719,61.1508 C148.8219,61.3948 148.4829,61.5838 148.0569,61.7208 C147.7379,61.8218 147.3109,61.8728 146.7769,61.8728 L144.0579,61.8728 L144.0579,54.7148 Z" id="Fill-39" fill="#342C9C" mask="url(#mask-2)"></path>
                    <path d="M154.9482,59.041 L153.9622,56.385 L152.9952,59.041 L154.9482,59.041 Z M157.6092,61.873 L156.0372,61.873 L155.4122,60.246 L152.5512,60.246 L151.9602,61.873 L150.4272,61.873 L153.2152,54.715 L154.7432,54.715 L157.6092,61.873 Z" id="Fill-40" fill="#342C9C" mask="url(#mask-2)"></path>
                    <polygon id="Fill-41" fill="#342C9C" mask="url(#mask-2)" points="158.236 61.873 159.608 61.873 159.608 60.5 158.236 60.5"></polygon>
                    <path d="M165.25,25.8101 L166.492,25.8101 C167.086,25.8101 167.491,25.7221 167.707,25.5441 C167.923,25.3681 168.031,25.1331 168.031,24.8411 C168.031,24.6541 167.979,24.4861 167.875,24.3371 C167.771,24.1891 167.626,24.0791 167.441,24.0051 C167.256,23.9331 166.914,23.8961 166.414,23.8961 L165.25,23.8961 L165.25,25.8101 Z M164.227,29.3801 L164.227,23.0371 L166.406,23.0371 C167.151,23.0371 167.69,23.0951 168.023,23.2121 C168.356,23.3301 168.622,23.5341 168.82,23.8261 C169.018,24.1181 169.117,24.4271 169.117,24.7551 C169.117,25.2191 168.952,25.6231 168.621,25.9661 C168.29,26.3101 167.852,26.5031 167.305,26.5441 C167.528,26.6381 167.708,26.7501 167.844,26.8801 C168.099,27.1301 168.411,27.5501 168.781,28.1381 L169.555,29.3801 L168.305,29.3801 L167.742,28.3801 C167.299,27.5941 166.942,27.1021 166.672,26.9041 C166.484,26.7581 166.211,26.6851 165.852,26.6851 L165.25,26.6851 L165.25,29.3801 L164.227,29.3801 Z M166.812,21.2011 C165.984,21.2011 165.178,21.4131 164.395,21.8371 C163.61,22.2621 162.997,22.8691 162.555,23.6581 C162.112,24.4471 161.891,25.2681 161.891,26.1221 C161.891,26.9721 162.108,27.7861 162.543,28.5641 C162.978,29.3431 163.586,29.9501 164.367,30.3841 C165.148,30.8191 165.963,31.0371 166.812,31.0371 C167.661,31.0371 168.477,30.8191 169.258,30.3841 C170.039,29.9501 170.646,29.3431 171.078,28.5641 C171.51,27.7861 171.727,26.9721 171.727,26.1221 C171.727,25.2681 171.506,24.4471 171.066,23.6581 C170.626,22.8691 170.013,22.2621 169.227,21.8371 C168.44,21.4131 167.635,21.2011 166.812,21.2011 L166.812,21.2011 Z M166.812,20.2241 C167.802,20.2241 168.768,20.4781 169.711,20.9861 C170.653,21.4941 171.388,22.2201 171.914,23.1651 C172.44,24.1111 172.703,25.0971 172.703,26.1221 C172.703,27.1381 172.444,28.1151 171.926,29.0521 C171.407,29.9901 170.681,30.7181 169.746,31.2361 C168.811,31.7541 167.833,32.0131 166.812,32.0131 C165.792,32.0131 164.813,31.7541 163.879,31.2361 C162.944,30.7181 162.216,29.9901 161.695,29.0521 C161.174,28.1151 160.914,27.1381 160.914,26.1221 C160.914,25.0971 161.178,24.1111 161.707,23.1651 C162.235,22.2201 162.971,21.4941 163.914,20.9861 C164.856,20.4781 165.823,20.2241 166.812,20.2241 L166.812,20.2241 Z" id="Fill-42" fill="#342C9C" mask="url(#mask-2)"></path>
                </g>
            </g>
        </g>
    </g>
</svg>