<?xml version="1.0" encoding="utf-8"?>
<!-- Generator: Adobe Illustrator 18.1.1, SVG Export Plug-In . SVG Version: 6.00 Build 0)  -->
<svg version="1.1" id="Layer_1" xmlns="http://www.w3.org/2000/svg" xmlns:xlink="http://www.w3.org/1999/xlink" x="0px" y="0px"
	 viewBox="0 0 40 36.8" enable-background="new 0 0 40 36.8" xml:space="preserve">
<g>
	<circle fill="#FFFFFF" cx="20" cy="18.4" r="14.4"/>
	<g>
		<path fill="#1185C7" d="M13.8,16.3h2.6v8.5h-2.6V16.3z M15.2,12.1c0.8,0,1.5,0.7,1.5,1.5c0,0.8-0.7,1.5-1.5,1.5
			c-0.8,0-1.5-0.7-1.5-1.5C13.6,12.8,14.3,12.1,15.2,12.1"/>
		<path fill="#1185C7" d="M18.1,16.3h2.5v1.2h0c0.4-0.7,1.2-1.4,2.5-1.4c2.7,0,3.2,1.8,3.2,4v4.7h-2.6v-4.1c0-1,0-2.2-1.4-2.2
			c-1.4,0-1.6,1.1-1.6,2.2v4.2h-2.6V16.3z"/>
	</g>
</g>
</svg>
