<?xml version="1.0" encoding="utf-8"?>
<!-- Generator: Adobe Illustrator 18.1.1, SVG Export Plug-In . SVG Version: 6.00 Build 0)  -->
<svg version="1.1" id="Layer_1" xmlns="http://www.w3.org/2000/svg" xmlns:xlink="http://www.w3.org/1999/xlink" x="0px" y="0px"
	 viewBox="0 0 40 36.8" enable-background="new 0 0 40 36.8" xml:space="preserve">
<g>
	<circle fill="#FFFFFF" cx="20" cy="18.4" r="14.4"/>
	<path fill="#EA3B58" d="M26.6,15.1c-0.1-0.9-0.4-1.7-1.1-2.3c-0.7-0.7-1.5-1-2.5-1c-1.6-0.1-5.3-0.1-6.6,0.1
		c-1.5,0.2-2.5,1.1-2.9,2.6c-0.3,1.1-0.3,6.4-0.1,7.5c0.3,1.5,1.2,2.5,2.7,2.9c1.1,0.3,6.3,0.2,7.4,0c1.5-0.2,2.5-1.2,2.9-2.7
		C26.8,21.1,26.7,16.1,26.6,15.1z M25.4,21.8c-0.2,1.2-1,1.9-2.1,2c-1.1,0.1-5.9,0.2-6.9-0.1c-1-0.3-1.5-0.9-1.7-1.9
		c-0.2-0.9-0.2-5.5,0-6.8c0.2-1.2,1-1.9,2.1-2c1.2-0.1,5.5-0.1,6.6,0c1.2,0.2,1.9,1,2,2.1C25.5,16.3,25.5,20.6,25.4,21.8z M20,15
		c-1.9,0-3.4,1.5-3.4,3.4c0,1.9,1.5,3.4,3.4,3.4c1.9,0,3.4-1.5,3.4-3.4C23.4,16.5,21.9,15,20,15z M20,20.6c-1.2,0-2.2-1-2.2-2.2
		c0-1.2,1-2.2,2.2-2.2c1.2,0,2.2,1,2.2,2.2C22.2,19.7,21.2,20.6,20,20.6z M24.4,14.8c0,0.4-0.4,0.8-0.8,0.8c-0.4,0-0.8-0.4-0.8-0.8
		c0-0.5,0.4-0.8,0.8-0.8C24,14,24.4,14.4,24.4,14.8z"/>
</g>
</svg>
