<?xml version="1.0" encoding="utf-8"?>
<!-- Generator: Adobe Illustrator 18.1.1, SVG Export Plug-In . SVG Version: 6.00 Build 0)  -->
<svg version="1.1" id="Layer_1" xmlns="http://www.w3.org/2000/svg" xmlns:xlink="http://www.w3.org/1999/xlink" x="0px" y="0px"
	 viewBox="0 0 40 36.8" enable-background="new 0 0 40 36.8" xml:space="preserve">
<g>
	<g>
		<g>
			<circle fill="#FFFFFF" cx="20" cy="18.4" r="14.4"/>
		</g>
	</g>
</g>
<path fill-rule="evenodd" clip-rule="evenodd" fill="#E73E3A" d="M13.7,23.7c-0.6-0.2-1-0.6-1.2-1.2c-0.5-1.5-0.7-7.6,0.3-8.8
	c0.3-0.4,0.8-0.7,1.3-0.7c2.8-0.3,11.3-0.3,12.3,0.1c0.6,0.2,1,0.6,1.2,1.2c0.6,1.5,0.6,7-0.1,8.5c-0.2,0.4-0.5,0.7-0.9,0.9
	C25.6,24.1,15,24.1,13.7,23.7z M18,20.8c1.7-0.9,3.3-1.7,5-2.6c-1.7-0.9-3.3-1.7-5-2.6C18,17.4,18,19.1,18,20.8z"/>
</svg>
