<?xml version="1.0" encoding="utf-8"?>
<!-- Generator: Adobe Illustrator 18.1.1, SVG Export Plug-In . SVG Version: 6.00 Build 0)  -->
<svg version="1.1" id="Layer_1" xmlns="http://www.w3.org/2000/svg" xmlns:xlink="http://www.w3.org/1999/xlink" x="0px" y="0px"
	 viewBox="0 0 40 36.8" enable-background="new 0 0 40 36.8" xml:space="preserve">
<g>
	<g>
		<circle fill="#FFFFFF" cx="20" cy="18.4" r="14.4"/>
	</g>
</g>
<path fill-rule="evenodd" clip-rule="evenodd" fill="#4C76B9" d="M22.4,13.3c0.5,0,1,0,1.4,0c0.1,0,0.1,0,0.2,0v-2.5
	c-0.3,0-0.5-0.1-0.8-0.1c-0.5,0-1,0-1.5,0c-0.8,0-1.5,0.2-2.1,0.6c-0.7,0.5-1.1,1.2-1.2,2.1c-0.1,0.3-0.1,0.7-0.1,1.1
	c0,0.6,0,1.1,0,1.7v0.2H16v2.8h2.4v7h2.9v-7h2.4c0.1-0.9,0.2-1.8,0.4-2.8c-0.2,0-0.4,0-0.5,0c-0.7,0-2.2,0-2.2,0s0-1.4,0-2
	C21.3,13.6,21.7,13.3,22.4,13.3z"/>
</svg>
